General
Name                             : Made In China
Format                           : AVI
Format/Info                      : Audio Video Interleave
Format profile                   : OpenDML
File size                        : 696 MiB
Duration                         : 2h 13mn
Overall bit rate                 : 730 Kbps
Writing application              : AVI-Mux GUI 1.17.7

Video
ID                               : 0
Format                           : MPEG-4 Visual
Format profile                   : Advanced Simple@L5
Format settings, BVOP            : Yes
Format settings, QPel            : No
Format settings, GMC             : No warppoints
Format settings, Matrix          : Default (H.263)
Codec ID                         : XVID
Codec ID/Hint                    : XviD
Duration                         : 2h 13mn
Bit rate                         : 663 Kbps
Width                            : 592 pixels
Height                           : 256 pixels
Display aspect ratio             : 2.35:1
Frame rate                       : 25.000 fps
Resolution                       : 8 bits
Colorimetry                      : 4:2:0
Scan type                        : Progressive
Bits/(Pixel*Frame)               : 0.175
Stream size                      : 632 MiB (91%)
Writing library                  : XviD 1.2.1 

Audio
ID                               : 1
Format                           : MPEG Audio
Format version                   : Version 2
Format profile                   : Layer 3
Mode                             : Joint stereo
Format_Settings_ModeExtension    : MS Stereo
Codec ID                         : 55
Codec ID/Hint                    : MP3
Duration                         : 2h 13mn
Bit rate mode                    : Constant
Bit rate                         : 64.0 Kbps
Channel(s)                       : 2 channels
Sampling rate                    : 24.0 KHz
Stream size                      : 61.0 MiB (9%)
Alignment                        : Aligned on interleaves
Interleave, duration             : 935 ms (23.37 video frames)
Interleave, preload duration     : 216 ms
Title                            : MIC edited 1 Tc0 L2 2ch 44.1 224 DELAY 0ms
Writing library                  : LAME3.98r


Source                           : TV 
Ripper                           : Nordmariner
 
http://img85.imageshack.us/img85/9176/zvaixwjpg.png 
http://img251.imageshack.us/img251/228/vq47xkjpg.png 
http://img237.imageshack.us/img237/272/s60oxcjpg.png 
http://img696.imageshack.us/img696/815/mt7zpxjpg.png 
http://img229.imageshack.us/img229/5691/2585939jpg.png 
http://img51.imageshack.us/img51/4637/2199sgzjpg.png 
http://img716.imageshack.us/img716/7495/1534n6ajpg.png 
http://img704.imageshack.us/img704/310/1045an5jpg.png 
http://img246.imageshack.us/img246/9443/358aqlejpg.png 
http://img130.imageshack.us/img130/8886/24pjuatjpg.png 
http://img535.imageshack.us/img535/9513/23keuiqjpg.png 
http://img85.imageshack.us/img85/3945/8yg5eujpg.png 
http://img532.imageshack.us/img532/5327/1zbgs5vjpg.png
